<?xml version="1.0" encoding="utf-8"?>
<!-- Generator: Adobe Illustrator 23.0.2, SVG Export Plug-In . SVG Version: 6.00 Build 0)  -->
<svg version="1.1" id="圖層_1" xmlns="http://www.w3.org/2000/svg" xmlns:xlink="http://www.w3.org/1999/xlink" x="0px" y="0px"
	 viewBox="0 0 858.3 146" style="enable-background:new 0 0 858.3 146;" xml:space="preserve">
<g transform="translate(0.000000,342.000000) scale(0.100000,-0.100000)">
	<path d="M270,3050v-369l-125-355c-69-195-125-357-125-360s53-6,118-6h117l58,168c32,92,61,173,65,180c5,7,33-58,71-168l64-180h119
		c110,0,120,1,113,17c-4,10-60,170-126,356l-119,338v375v374H385H270V3050z"/>
	<path d="M1120,3365v-55H980H840v-125v-125h140h140v-80c0-73-2-80-20-80s-20,7-20,70v70H970H860v-70v-70h-35h-35v-120v-120h35
		c34,0,35-1,35-40s-1-40-35-40h-35v-120v-120h84h85l-81-172c-44-95-83-181-85-191c-5-16,4-17,128-15l133,3l80,185l81,185l3-187
		l2-188h230h230v115v115h-115h-115v75v75h115h115v120v120h-30c-28,0-30,2-30,40s2,40,30,40h30v120v120h-30h-30v70v70h-110h-110v-70
		c0-68-1-70-25-70c-25,0-25,1-25,80v80h145h145v125v125h-145h-145v55v55h-115h-115V3365z M1400,2620v-40h-160h-160v40v40h160h160
		V2620z"/>
	<path d="M2410,3345v-75h-305h-305v-655v-655h135h135v65v65h99h100l148,215c81,118,150,215,153,215c3-1,70-97,150-215l145-214l108-1
		h107v-65v-65h135h135v655v655h-315h-315v75v75h-155h-155V3345z M2254,2978c-13-22-166-242-175-253c-5-5-9,50-9,128v137h96
		C2239,2990,2259,2987,2254,2978z M3080,2845c0-80-2-145-4-145c-5,0-196,278-196,285c0,3,45,5,100,5h100V2845z M2796,2680l68-100
		h108h108v-187c0-181-1-187-17-163c-202,285-343,499-343,523c0,15,2,27,4,27S2759,2735,2796,2680z M2259,2498
		c-84-123-161-234-171-247c-18-23-18-20-18,152v176l103,3l102,3l65,95c58,85,65,92,68,68C2411,2726,2379,2673,2259,2498z"/>
	<path d="M7537,3368c-15-12-16-66-18-606c0-326,1-595,2-597c2-2,58-44,123-94l120-91l385,2l386,3l24,68l24,68l-21,54l-21,54l21,61
		l20,61l-21,58l-21,58l21,61l21,61l-22,57l-21,57l22,61l21,61l-24,65l-23,65l-313,3l-313,2l1,133c1,72,1,137,1,144c-1,6-36,41-78,77
		l-76,66h-102C7590,3380,7548,3376,7537,3368z M7777,3248l48-41l5-161l5-161l318-3l318-2l10-27c5-15,7-39,4-55l-7-28h-138
		c-154,0-170-6-170-61c0-66,6-69,161-69c138,0,140,0,150-24c8-16,8-34,2-53l-10-28l-139-3c-154-3-164-7-164-68c0-58,15-64,170-64
		h138l7-28c3-16,1-41-4-55l-11-27h-138c-94,0-142-4-150-12c-16-16-15-83,1-96c8-7,71-13,152-14c139-3,140-3,148-28c5-15,5-36-2-52
		l-11-28h-333h-333l-102,76l-102,76v539v539h64C7726,3290,7731,3288,7777,3248z"/>
	<path d="M5418,2972l-668-286v-182v-183l103,49c56,26,178,84,271,129s170,81,172,81s4-139,4-310v-310h150h150l2,362l3,363l240,97
		l240,96l3,96c1,53,1,138,0,190l-3,95L5418,2972z"/>
	<path d="M6160,2885v-355h180h180v190v190h265h265v-300v-300h-440h-440v-165v-165h613h613l-3,378c-2,207-6,491-9,630l-6,252h-609
		h-609V2885z"/>
	<path d="M0,2985v-245h110h110v245v245H110H0V2985z"/>
	<path d="M540,2985v-245h110h110v245v245H650H540V2985z"/>
	<path d="M3510,3070v-160h585h585v160v160h-585h-585V3070z"/>
	<path d="M3510,2685v-155h425h425v-33c0-28-13-46-93-125l-92-92h-333h-332v-155v-155h415h416l169,173l169,172l1,263v262h-585h-585
		V2685z"/>
</g>
</svg>
